# xmcd
#
# Track frame offsets:
#	150
#	19951
#	43308
#	64571
#	83259
#	103105
#	124041
#	146221
#	165381
#	180970
#	199515
#	217555
#	238765
#
# Disc length: 3473 seconds
#
# Revision: 0
# Processed by: cddbd v1.5.1PL0 Copyright (c) Steve Scherf et al.
# Submitted via: dBpowerAMP V4.0
#
DISCID=a30d8f0d
DTITLE=Various Artist - Unplugged
DYEAR=1900
DGENRE=
TTITLE0=You Learn - Alanis Morrisette
TTITLE1=Joining You - 
TTITLE2=No Pressure Over Capuccino - 
TTITLE3=That I Would Be Good - 
TTITLE4=Head Over Feet - 
TTITLE5=Princess Familiar - 
TTITLE6=I Was Hoping - 
TTITLE7=Ironic - 
TTITLE8=These´r The Thoughts - 
TTITLE9=King of Pain - 
TTITLE10=You Oughta Know - 
TTITLE11=Uninvited - 
TTITLE12=One - 
EXTD=
EXTT0=
EXTT1=
EXTT2=
EXTT3=
EXTT4=
EXTT5=
EXTT6=
EXTT7=
EXTT8=
EXTT9=
EXTT10=
EXTT11=
EXTT12=
PLAYORDER=
